<svg xmlns="http://www.w3.org/2000/svg" width="100" height="31" viewBox="0 0 100 31"><path fill="#5BA6FD" d="m27.64 19.38 2.47-2.55a11.48 11.48 0 0 0 2.1 1.96 5.17 5.17 0 0 0 3.07.93c1.16 0 2.04-.3 2.63-.88.58-.6.88-1.29.88-2.07 0-.46-.12-.87-.36-1.24a2.9 2.9 0 0 0-.92-.94c-.38-.26-.83-.5-1.33-.73-.5-.22-1.03-.44-1.59-.66a73.9 73.9 0 0 1-1.65-.7 8.54 8.54 0 0 1-2.92-2.05 4.97 4.97 0 0 1-.92-1.6 6.33 6.33 0 0 1-.34-2.12 5.8 5.8 0 0 1 2-4.67A7.72 7.72 0 0 1 35.93.35c2.12 0 4.05.7 5.97 2.09L39.87 5.5a6.03 6.03 0 0 0-4.12-1.55c-.98 0-1.74.2-2.29.63-.53.42-.8 1-.8 1.75 0 .6.18 1.12.56 1.56.37.44.85.8 1.43 1.08.6.27 1.25.54 1.97.8.72.27 1.44.58 2.15.93.71.34 1.36.75 1.95 1.21a5.1 5.1 0 0 1 1.45 1.9c.37.8.56 1.72.56 2.79 0 1.84-.65 3.67-1.94 4.89-1.29 1.22-3.13 1.83-5.54 1.83-.95 0-1.82-.1-2.64-.3a8.44 8.44 0 0 1-2.53-1.22 9.78 9.78 0 0 1-2.43-2.42Zm17 3.95V.35h3.7V14.2l5.41-5.78h4.74l-6.5 6.77 7.25 8.14h-4.86l-6.04-6.76v6.76h-3.7ZM58.6 8.42h4.08l3.84 10.1 3.63-10.1h3.63L65.31 31h-3.6l3.06-7.68-6.18-14.9Zm16.11 14.92V8.42h3.7v1.31c.68-.5 1.42-.85 2.2-1.04a15.5 15.5 0 0 1 3.28-.27v3.52c-.93 0-1.72.06-2.39.16-.65.11-1.18.26-1.58.46-.4.18-.71.44-.94.77-.22.34-.37.69-.45 1.06-.08.36-.12.8-.12 1.33v7.62h-3.7Zm9.22-7.49c0-2.07.73-3.82 2.2-5.27a7.39 7.39 0 0 1 5.36-2.16 7.57 7.57 0 0 1 6.58 3.69 7.23 7.23 0 0 1 1.01 3.74 7.39 7.39 0 0 1-3.77 6.47c-1.15.67-2.43 1-3.82 1a7.52 7.52 0 0 1-6.56-3.72c-.67-1.15-1-2.4-1-3.75Zm3.62 0a3.8 3.8 0 0 0 1.16 2.77 3.83 3.83 0 0 0 2.78 1.16c1.08 0 2.03-.39 2.8-1.16a3.8 3.8 0 0 0 1.16-2.77c0-1.06-.39-1.96-1.16-2.74a3.8 3.8 0 0 0-2.8-1.17c-1.1 0-2 .4-2.78 1.17a3.74 3.74 0 0 0-1.16 2.74Zm-71.6-4.76c0 .15-.06.3-.18.43l-2.17 2.34-2.18 2.34-7.07 7.11A4.74 4.74 0 0 1 0 18.6V5.09A4.74 4.74 0 0 1 4.74.35h9.53L9.22 5.4 7.04 7.76 4.86 10.1a3.84 3.84 0 0 0 5.62 5.23l2.2-2.33 2.18-2.34a.64.64 0 0 1 1.1.44Z"/><path fill="#5BA6FD" d="M22.98 5.08v13.5a4.74 4.74 0 0 1-4.74 4.74h-9.4l4.92-4.94 2.18-2.34 2.18-2.34a3.85 3.85 0 0 0-5.62-5.23l-2.18 2.34-2.17 2.34h-.01a.64.64 0 0 1-.9.03.63.63 0 0 1-.03-.9l2.18-2.35 2.17-2.33L18.74.37a4.74 4.74 0 0 1 4.24 4.71Z"/></svg>